<?xml version="1.0" encoding="utf-8"?>
<!-- Generator: Adobe Illustrator 16.0.0, SVG Export Plug-In . SVG Version: 6.00 Build 0)  -->
<!DOCTYPE svg PUBLIC "-//W3C//DTD SVG 1.1//EN" "http://www.w3.org/Graphics/SVG/1.1/DTD/svg11.dtd">
<svg version="1.1" id="Layer_1" xmlns="http://www.w3.org/2000/svg" xmlns:xlink="http://www.w3.org/1999/xlink" x="0px" y="0px"
	 width="99.963px" height="30.75px" viewBox="0 0 99.963 30.75" enable-background="new 0 0 99.963 30.75" xml:space="preserve">
<path fill="none" stroke="#D4145A" stroke-width="2" stroke-miterlimit="10" d="M17.004,28.27C22.322,24.51,32,17.308,32,9.789
	c0-6.057-5.074-7.52-7.79-7.52c-2.28,0-5.213,2.07-6.593,4.153c-0.269,0.406-0.37,0.438-0.613,0.438
	c-0.313,0-0.354-0.046-0.632-0.458c-1.391-2.077-4.311-4.133-6.577-4.133C7.073,2.269,2,3.732,2,9.789
	C2,17.308,11.686,24.51,17.004,28.27z"/>
<path fill="#D4145A" fill-opacity="0.3" stroke="#D4145A" stroke-width="2" stroke-miterlimit="10" d="M50.004,28.27
	C55.322,24.51,65,17.308,65,9.789c0-6.057-5.074-7.52-7.79-7.52c-2.28,0-5.213,2.07-6.593,4.153
	c-0.269,0.406-0.37,0.438-0.613,0.438c-0.313,0-0.354-0.046-0.632-0.458c-1.391-2.077-4.311-4.133-6.577-4.133
	C40.073,2.269,35,3.732,35,9.789C35,17.308,44.686,24.51,50.004,28.27z"/>
<path fill="#D4145A" stroke="#D4145A" stroke-width="2" stroke-miterlimit="10" d="M83.004,28.27C88.322,24.51,98,17.308,98,9.789
	c0-6.057-5.074-7.52-7.79-7.52c-2.28,0-5.213,2.07-6.593,4.153c-0.269,0.406-0.37,0.438-0.613,0.438
	c-0.313,0-0.354-0.046-0.632-0.458c-1.391-2.077-4.311-4.133-6.577-4.133C73.073,2.269,68,3.732,68,9.789
	C68,17.308,77.686,24.51,83.004,28.27z"/>
</svg>
