<?xml version="1.0" encoding="utf-8"?>
<!-- Generator: Adobe Illustrator 16.0.0, SVG Export Plug-In . SVG Version: 6.00 Build 0)  -->
<!DOCTYPE svg PUBLIC "-//W3C//DTD SVG 1.1//EN" "http://www.w3.org/Graphics/SVG/1.1/DTD/svg11.dtd">
<svg version="1.1" id="Layer_1" xmlns="http://www.w3.org/2000/svg" xmlns:xlink="http://www.w3.org/1999/xlink" x="0px" y="0px"
	 width="160px" height="80px" viewBox="0 0 160 80" enable-background="new 0 0 160 80" xml:space="preserve">
<g>
	<path fill="none" stroke="#666666" stroke-width="2" stroke-miterlimit="10" d="M33.995-45.036c0,0-3.268-2.3-2.485-8.747
		c0.375-3.143,4.608-6.394,4.608-6.394c-1.507,7.826,9.705,12.123,11.56-4.407c1.265,3.648,6.574,9.912-2.196,19.408
		c0,0,16.436-4.933,15.208-18.547C59.757-73.95,46.988-73.555,48.52-97.5c-3.452,1.473-10.085,10.041-7.861,17.942
		c0.805,2.938,3.915,8.316-0.156,9.748c-2.863,0.991-6.536,0.063-5.128-6.751c1.124-5.438-5.636-8.558-5.636-8.558
		c2.325,8.67-10.302,15.628-9.099,27.273C21.367-50.692,27.782-46.485,33.995-45.036z"/>
	<path fill="none" stroke="#666666" stroke-width="2" stroke-miterlimit="10" d="M26.753-30.704
		c1.539-0.005,3.039-0.682,4.509-1.056c1.528-0.407,3.069-0.591,4.538-1.142c1.723-0.635,3.373-1.42,5.141-1.953
		c1.602-0.444,3.123-0.781,4.614-1.561c1.25-0.663,2.488-1.106,3.835-1.464c2.092-0.574,3.876-1.808,6.081-2.174
		c1.258-0.26,1.849-0.483,2.659,0.531c0.437,0.521,1.411,1.809,1.09,2.602c-0.256,0.648-2.105,1.254-2.703,1.575
		c-1.602,0.782-3.381,1.109-5.134,1.623c-3.567,1.051-6.894,2.761-10.349,4.019C38.467-28.8,35.87-27.943,33.315-27
		c-2.036,0.755-3.934,1.796-5.979,2.462c-0.813,0.251-1.643,0.47-2.525,0.582c-0.443,0.072-1.103,0.214-1.553,0.129
		c-0.812-0.207-0.513,0.012-0.779-0.793c-0.366-1.114-0.916-3.362-0.065-4.254c0.814-0.845,2.947-1.743,4.129-1.694L26.753-30.704z"
		/>
	<path fill="none" stroke="#666666" stroke-width="2" stroke-miterlimit="10" d="M50.314-29.685c1.38-0.066,2.98,1.147,4.304,1.525
		c1.376,0.451,2.892,0.63,4.225,1.158c0.539,0.191,1.865,0.292,2.117,0.978c0.15,0.392-0.165,1.785-0.263,2.228
		c-0.475,1.85-1.905,1.255-3.27,0.995c-1.069-0.179-2.271-0.386-3.31-0.872c-1.135-0.536-2.234-1.337-3.395-1.817
		c-1.04-0.396-1.98-0.659-3.034-0.995c-0.803-0.309-2.146-0.235-2.675-1.101c0.692-0.526,1.92-0.888,2.727-1.119
		c0.863-0.232,1.806-0.588,2.579-0.893"/>
	<path fill="none" stroke="#666666" stroke-width="2" stroke-miterlimit="10" d="M36.78-36.857
		c-1.566-1.039-3.836-1.284-5.654-1.735c-1.917-0.483-3.531-1.438-5.407-1.944c-0.916-0.221-1.684-0.681-2.595-0.909
		c-0.378-0.131-0.82-0.252-1.25-0.16c-0.727,0.183-0.43,0.153-0.887,0.644c-0.909,1.032-3.029,2.895-1.375,3.903
		c2.427,1.51,6.153,0.803,8.909,1.246c1.369,0.195,2.603,0.271,3.906-0.113c1.358-0.45,2.777-0.511,4.041-0.931"/>
</g>
<g>
	<path fill="none" stroke="#666666" stroke-width="2" stroke-miterlimit="10" d="M51.873-146.816
		c-1.826,2.164-2.592,3.052-4.491,6.06c-1.418,2.238-3.391,4.536-5.261,7.539c-1.189,1.963-2.854,4.599-3.217,6.918
		c-0.195,1.177,2.145,3.061,3.32,3.275c1.296,0.246,2.572-1.419,3.326-2.364c1.381-1.791,2.386-3.028,3.839-4.765
		c1.927-2.33,3.755-4.675,5.578-7.066c2.938-3.747,4.803-8.114,7.091-12.38c0.808-1.465,2.35-4.291,2.293-6.104
		c-0.052-1.734-1.966-3.419-3.13-3.174C57.837-158.125,54.996-150.522,51.873-146.816z"/>
	<path fill="none" stroke="#666666" stroke-width="2" stroke-miterlimit="10" d="M69.76-179.493c0,0,3.979,7.324-4.368,9.158
		c-4.664,1.063-3.659,5.336-2.293,7.551c1.047,1.702,7.569,4.832,11.28-0.727C82.292-175.296,69.76-179.493,69.76-179.493z"/>
	<path fill="none" stroke="#666666" stroke-width="2" stroke-miterlimit="10" d="M31.522-163.548
		c-5.049-2.732-0.346-11.126-2.729-15.501c-2.132-3.895-15.011-11.145-24.338,15.152c-3.88,10.981-2.338,21.486-0.946,25.494
		c0.75,2.134,2.263,4.743,3.726,6.335c3.911,4.136,9.056,6.108,14.752,5.533c5.404-0.551,10.725-5.15,14.335-9.177
		c4.066-4.482,7.636-9.17,9.361-15.046c0.835-2.864,1.271-5.619,1.734-8.555c0.393-2.479,1.047-5.434,0.3-7.979
		c-0.775-2.641-2.549-5.186-5.631-4.353c-2.318,0.631-3.066,3.987-4.4,5.714c-0.809,1.02-1.77,2.24-3.13,2.564
		C33.419-163.123,32.556-162.87,31.522-163.548"/>
	<path fill="#FFFFFF" stroke="#666666" stroke-width="2" stroke-miterlimit="10" d="M25.521-167.152
		c-0.538-4.159-6.672-4.503-8.646-4.523c-1.916-0.02-2.761,0.563-3.826,2.282c-0.849,1.33-1.443,2.989-1.694,4.476
		c-0.522,2.792-0.243,5.393,2.017,7.261c1.792,1.478,5.969,2.16,7.892,0.645C23.868-159.083,26.219-163.406,25.521-167.152"/>
	<path fill="#FFFFFF" stroke="#666666" stroke-width="2" stroke-miterlimit="10" d="M15.107-150.719
		c-0.324-2.401-3.921-2.62-5.062-2.64c-1.132-0.01-1.621,0.355-2.251,1.322c-0.477,0.786-0.817,1.777-0.992,2.64
		c-0.298,1.658-0.126,3.167,1.192,4.234c1.048,0.893,3.487,1.261,4.599,0.386C14.13-146.004,15.507-148.518,15.107-150.719"/>
	<path fill="#FFFFFF" stroke="#666666" stroke-width="2" stroke-miterlimit="10" d="M20.706-137.828
		c-0.325-2.403-3.897-2.623-5.062-2.638c-1.105-0.018-1.598,0.351-2.226,1.316c-0.503,0.784-0.843,1.777-0.992,2.64
		c-0.301,1.662-0.151,3.168,1.167,4.24c1.049,0.887,3.514,1.257,4.624,0.378C19.728-133.115,21.105-135.631,20.706-137.828"/>
	<path fill="#FFFFFF" stroke="#666666" stroke-width="2" stroke-miterlimit="10" d="M33.361-142.107
		c-0.322-2.457-3.922-2.63-5.06-2.641c-1.133-0.011-1.624,0.343-2.252,1.317c-0.476,0.771-0.826,1.782-0.991,2.642
		c-0.301,1.61-0.126,3.153,1.19,4.222c1.05,0.856,3.49,1.276,4.601,0.396C32.385-137.396,33.764-139.932,33.361-142.107"/>
</g>
<text transform="matrix(1 0 0 1 -675.6704 -87.7852)" fill="#333333" font-family="'MyriadPro-Regular'" font-size="12.9689">Adventure</text>
<text transform="matrix(1 0 0 1 -589.2114 -87.7852)" fill="#333333" font-family="'MyriadPro-Regular'" font-size="12.9689">Romantic</text>
<text transform="matrix(1 0 0 1 -504.5879 -87.7852)" fill="#333333" font-family="'MyriadPro-Regular'" font-size="12.9689">Culture</text>
<text transform="matrix(1 0 0 1 -438.2578 -87.7852)" fill="#333333" font-family="'MyriadPro-Regular'" font-size="12.9689">After Dark</text>
<text transform="matrix(1 0 0 1 -354.4297 -87.7852)" fill="#333333" font-family="'MyriadPro-Regular'" font-size="12.9689">Family</text>
<text transform="matrix(1 0 0 1 -735.7168 -87.7852)" fill="#333333" font-family="'MyriadPro-Regular'" font-size="12.9689">Art</text>
<path fill="none" stroke="#666666" stroke-width="2" stroke-miterlimit="10" d="M57.934,45.482c1.19-3.18,5.4-14.383-2.389-20.775
	c-2.464-2.01-7.302-2.033-10.321-1.306c-3.299,0.819-6.108,1.729-8.508,4.276c-1.297,1.364-1.728,2.911-2.267,4.62
	c-0.867-6.858-10.104-10.116-16.303-9.005c-5.896,1.104-9.901,8.8-9.494,13.518c0.317,3.623,1.365,6.086,3.185,9.252
	c1.319,2.269,2.579,4.579,4.391,6.486c2.174,2.331,3.897,4.825,6.314,6.955c2.398,2.102,4.419,4.666,6.786,6.822
	c1.799,1.619,3.529,2.958,5.553,4.323C43.347,64.71,53.734,56.588,57.934,45.482z"/>
<path fill="none" stroke="#666666" stroke-width="2" stroke-miterlimit="10" d="M69.138,12.119
	c-1.129,0.247-10.136,9.556-11.609,11.591"/>
<path fill="none" stroke="#666666" stroke-width="2" stroke-miterlimit="10" d="M33.228,46.952
	c-1.64,0.604-15.154,15.068-17.095,17.149c-1.408,1.52-5.113,3.358-3.142,5.667c0.484,0.579,1.252,0.7,1.73,1.235
	c1.99,2.159-0.364,2.613-2.114,2.953c-1.904,0.408-3.64,0.556-5.534,0.837C5.241,75.116,3.718,76.216,2,76.5
	c0.556-2.008,1.592-3.834,2.28-5.784c0.696-1.968,1.169-4.771,2.518-6.256c1.251,1.043,2.616,2.584,5.771,4.612"/>
<path fill="none" stroke="#666666" stroke-width="2" stroke-miterlimit="10" d="M63.741,10.161c0-1.924,0.362-4.898-0.453-6.636
	c-1.415-0.286-2.294,1.973-2.909,2.825c-0.882,1.252-1.852,2.482-2.725,3.679c-1.393,1.857-1.884,5.294-1.676,7.733
	c1.085,0.27,3.441-2.981,4.188-3.838C61.131,12.873,63.349,11.464,63.741,10.161L63.741,10.161z"/>
<path fill="none" stroke="#666666" stroke-width="2" stroke-miterlimit="10" d="M76.613,21c-2.352,0-5.587-3.543-7.215-2.004
	c-1.005,0.947-1.758,0.746-2.666,1.837c-0.723,0.883-2.174,1.206-2.559,2.273c2.705,0.133,6.201,3.172,8.018,1.147
	C72.99,23.359,77.751,23,76.898,21H76.613z"/>
<g>
	<path fill="none" stroke="#333333" stroke-miterlimit="10" d="M-481.555-149.966c0.374,0.944,1.47,4.329,1.75,5.239
		c0.669,2.142,0.965,4.297,1.297,6.54c0.289,1.918,1.158,10.922,0.316,12.862c-0.808,1.83-3.042,4.33-4.743,5.479
		c-1.972,1.306-4.255,1.76-6.573,1.987c-2.529,0.208-8.86-0.703-10.261-3.572c-0.537-1.138-6.348-20.757-6.453-25.457
		C-503.293-145.575-487.826-144.317-481.555-149.966z"/>
	<path fill="none" stroke="#333333" stroke-miterlimit="10" d="M-484.216-130.804c-2.924,4.735-10.222,3.49-12.284,2.828
		C-495.424-122.354-483.688-121.313-484.216-130.804z"/>
	<path fill="none" stroke="#333333" stroke-miterlimit="10" d="M-489.643-137.734c0.943-2.994,5.017-3.457,6.75-0.895"/>
	<path fill="none" stroke="#333333" stroke-miterlimit="10" d="M-493.452-136.298c-1.923-1.973-6.392-0.853-7.063,1.802"/>
	<g>
		<path fill="none" stroke="#333333" stroke-miterlimit="10" d="M-478.065-133.887c1.405-6.057,3.182-10.58,4.478-13.026
			c1.772,2.367,13.646,10.282,21.223,8.568c-0.136,0.904-0.758,4.124-0.931,4.981c-0.427,2.032-1.169,3.881-1.89,5.819
			c-0.629,1.691-3.968,9.313-5.51,10.482c-1.473,1.146-4.398,2.155-6.281,2.3c-2.167,0.173-4.207-0.47-6.167-1.35
			c-1.709-0.737-6.653-1.979-6.97-6.348"/>
		<path fill="none" stroke="#333333" stroke-miterlimit="10" d="M-475.257-123.834c5.563-0.966,9.016,3.44,10.424,5.467
			C-462.267-123.006-469.775-130.672-475.257-123.834z"/>
		<path fill="none" stroke="#333333" stroke-miterlimit="10" d="M-458.018-130.342c-2.031,2.05-5.555,0.704-5.899-2.135"/>
		<path fill="none" stroke="#333333" stroke-miterlimit="10" d="M-474.52-137.254c0.07,2.519,3.759,4.472,5.854,3.051"/>
	</g>
</g>
<g>
	<path fill="none" stroke="#333333" stroke-miterlimit="10" d="M-398.495-146.954c-0.214-0.13-0.484-0.954-0.233-1.323
		c0.36-0.545,0.938-0.38,1.558-0.396c0.371-1.228-1.908-2.047-2.683-2.699c-1.042-0.832-1.873-1.751-2.186-3.071
		c-0.338-1.375,0.125-3.234-0.743-4.459c-0.432-0.599-0.86-0.742-1.126-1.441c-0.289-0.671-0.241-1.529-0.493-2.162
		c-0.255,0.592-0.114,1.428-0.348,2.077c-0.261,0.799-0.745,1.099-1.167,1.798c-0.77,1.214-0.379,2.631-0.865,3.934
		c-0.493,1.285-1.481,2.054-2.539,2.861c-1.162,0.891-3.371,1.73-3.316,3.39c0.517-0.022,1.299-0.07,1.713,0.305
		c0.612,0.549,0.109,1.303,0.702,1.706c0.802,0.564,2.951-0.267,3.876-0.344c2.641-0.246,5.276,0.089,7.851,0.092"/>
	<path fill="none" stroke="#333333" stroke-miterlimit="10" d="M-399.36-132.393c-1.727,0-3.472,0.625-5.325,0.422
		c-1.74-0.17-3.382-0.855-5.242-0.688c0.89,1.451,1.983,2.031,1.077,2.717c-0.2,0.155-0.627-0.148-0.833,0.003
		c-0.599,0.433,1.11,1.546,1.555,2.161c0.547,0.729,1.076,1.606,1.471,2.472c2.251,4.778-3.427,14.33-6.023,16.184
		c0.915,1.137,5.208,1.219,6.672,1.366c2.523,0.29,4.834,0.516,7.253-0.139c0.916-0.271,2.871-0.758,2.871-0.758
		s-2.016-2.263-2.492-2.918c-1.302-1.733-2.782-4.046-3.561-6.157c-0.771-2.027-0.639-6.684,0.002-8.947
		c0.168-0.617,0.493-1.434,1.097-1.855c0.563-0.358,1.507-0.03,1.487-0.983c-0.015-0.641-1.139-0.221-0.79-1.302
		C-399.873-131.615-399.36-132.393-399.36-132.393z"/>
	<path fill="none" stroke="#333333" stroke-miterlimit="10" d="M-398.755-147.401c1.141,2.409,1.857,4.257,1.857,7.105
		c0,2.563-0.679,5.985-2.463,7.903"/>
	<path fill="none" stroke="#333333" stroke-miterlimit="10" d="M-402.249-146.911c2.442,3.764,2.454,11.132-0.721,14.784"/>
	<path fill="none" stroke="#333333" stroke-miterlimit="10" d="M-406.763-146.911c-1.249,3.764-1.255,11.132,0.386,14.784"/>
	<path fill="none" stroke="#333333" stroke-miterlimit="10" d="M-410.312-146.318c-1.287,2.452-1.606,4.55-1.724,7.007
		c-0.114,2.422,0.28,4.85,2.216,6.508"/>
	<path fill="none" stroke="#333333" stroke-miterlimit="10" d="M-394.691-145.667c0.531-0.243,0.776-0.912,1.24-1.268
		c0.613-0.465,1.384-0.67,1.969-1.191"/>
	<path fill="none" stroke="#333333" stroke-miterlimit="10" d="M-394.358-140.106c1.202,0,2.441-0.079,3.604,0.156"/>
	<path fill="none" stroke="#333333" stroke-miterlimit="10" d="M-395.344-134.954c1.095,0.602,2.03,1.764,3.03,2.558"/>
	<path fill="none" stroke="#333333" stroke-miterlimit="10" d="M-416.015-145.743c-1.009-0.529-2.186-1.247-3.201-1.658"/>
	<path fill="none" stroke="#333333" stroke-miterlimit="10" d="M-414.895-140.259c-1.927,0-4.162-0.132-3.824-0.132"/>
	<path fill="none" stroke="#333333" stroke-miterlimit="10" d="M-413.305-134.279c-1.096,0.097-2.156,1.431-2.955,2.118"/>
</g>
<path fill-rule="evenodd" clip-rule="evenodd" fill="none" stroke="#333333" stroke-miterlimit="10" d="M-247.013-134.813
	c-0.092,0.013-1.679-3.836-1.771-3.824c-0.014,0.356-0.035,0.675-0.043,1.029c-0.042,1.614,1.344,8.291,1.265,9.903"/>
<path fill-rule="evenodd" clip-rule="evenodd" fill="none" stroke="#333333" stroke-miterlimit="10" d="M-274.75-134.614
	c-0.545-0.194,0.355,2.063-0.439-3.599c-0.151,0.686-0.432,2.571-0.529,3.025c-1.509-1.234-3.209-0.657-4.338,0.316
	c0.278-1.146,0.603-4.388,1.067-5.693c1.303-3.647,4.063-5.953,7.47-7.569c0.653-0.326,1.161-0.28,1.595,0.374
	c0.173,0.241,0.457,0.441,0.676,0.65c1.8-1.455,2.103-1.489,4.058-0.147c1.143,0.752,2.208,1.64,3.298,2.476
	c1.201-0.874,2.386-1.797,3.63-2.608c1.919-1.227,1.938-1.197,3.583,0.212c0.073-0.009,0.165,0.005,0.206-0.031
	c1.47-1.345,1.474-1.353,3.293-0.357c4.302,2.356,7.574,7.402,8.188,12.103"/>
<path fill-rule="evenodd" clip-rule="evenodd" fill="none" stroke="#333333" stroke-miterlimit="10" d="M-249.438-116.424
	c0.445,0.052,0.343,7.004,0.261,8.455c-0.085,1.381-1.199,2.361-2.524,2.371c-1.333,0.006-2.464-0.924-2.521-2.349
	c-0.098-2.548-0.058-5.128-0.073-7.678c-0.004-0.416-0.002-0.816-0.002-1.244c-0.09-0.01-0.181-0.02-0.275-0.027
	c-0.026,0.256-0.078,0.552-0.08,0.81c-0.004,2.412,0.019,4.825-0.016,7.237c-0.01,0.6-0.091,1.231-0.305,1.814
	c-0.376,0.948-1.452,1.527-2.491,1.416c-1.103-0.091-1.987-0.807-2.238-1.901c-0.11-0.491-0.154-1.012-0.156-1.523
	c-0.015-2.803-0.006-5.622-0.006-8.467c-0.847-0.295-1.675-0.554-2.467-0.87c-0.915-0.402-1.422-0.985-1.158-2.155
	c0.615-2.758,1.118-5.567,1.649-8.335c0.049-0.276-0.011-0.542-0.021-0.822c-0.278,0.062-0.556,0.154-0.845,0.188
	c-1.331,0.181-1.317,1.082-1.309,2.136c0.034,6.147,0.031,12.297-0.007,18.48c-0.004,0.715-0.155,1.54-0.493,2.166
	c-0.511,0.957-1.482,1.283-2.546,1.054c-1.061-0.192-1.758-0.852-1.99-1.937c-0.101-0.441-0.088-0.919-0.088-1.39
	c-0.006-5.301-0.004-10.602-0.004-15.866c0-0.39,0-0.782,0-1.173c-0.112-0.006-0.222-0.012-0.333-0.019
	c-0.02,0.361-0.054,0.724-0.054,1.059c-0.002,5.472,0.006,10.939-0.004,16.412c-0.002,1.799-0.964,2.897-2.516,2.983
	c-1.233,0.079-1.864-0.554-1.862-1.756c0-3.328,0-6.621,0-10.032"/>
<path fill-rule="evenodd" clip-rule="evenodd" fill="none" stroke="#333333" stroke-miterlimit="10" d="M-241.379-122.413
	c0.447,2.914,0.891,5.824,1.349,8.828c-0.445,0.056-0.899,0.109-1.449,0.159c0,1.815,0,3.645,0,5.475
	c0,0.338,0.006,0.711-0.005,1.084c-0.032,1.15-0.636,1.883-1.563,1.867c-0.921-0.018-1.496-0.745-1.505-1.917
	c-0.016-1.768-0.004-3.497-0.004-5.265c0-0.34,0-0.694,0-1.063c-0.071-0.001-0.145-0.001-0.218-0.001c0,1.823,0,3.608,0,5.429
	c0,0.411,0.02,0.817-0.013,1.19c-0.077,0.983-0.749,1.703-1.596,1.614c-0.928-0.13-1.445-0.694-1.458-1.639
	c-0.02-1.831-0.008-3.699-0.01-5.568c0-0.401,0-0.772,0-1.209c-0.479-0.046-0.865-0.092-1.327-0.157
	c0.438-2.782,0.869-5.549,1.301-8.279c-0.118-0.021-0.242-0.044-0.367-0.069c-0.086,0.426-0.186,0.856-0.248,1.304
	c-0.079,0.536,0.01,1.178-0.236,1.606c-0.21,0.393-0.796,0.865-1.175,0.831c-0.379-0.036-0.991-0.646-0.996-1.025
	c-0.043-3.66,1.021-6.904,4.154-9.128c1.048-0.766,1.185-0.727,2.185,0.105c0.689-0.993,1.451-0.592,2.208-0.063
	c3.195,2.223,4.287,5.482,4.352,9.177c0.012,0.75-0.485,1.181-1.2,1.162c-0.731-0.019-1.09-0.513-1.172-1.228
	c-0.132-1.098-0.269-2.191-0.409-3.313C-240.978-122.471-241.177-122.439-241.379-122.413z"/>
<path fill-rule="evenodd" clip-rule="evenodd" fill="none" stroke="#333333" stroke-miterlimit="10" d="M-281.393-122.093
	c-0.075,0.767-0.151,1.495-0.223,2.262c-0.076,0.783-0.355,1.499-1.285,1.439c-0.922-0.063-1.141-0.776-1.086-1.598
	c0.215-3.445,1.265-6.501,4.274-8.571c0.698-0.479,1.381-0.749,1.97,0.292c0.795-1.144,1.581-0.628,2.349-0.075
	c3.042,2.188,4.15,5.313,4.127,8.938c-0.004,0.373-0.59,1.006-1.018,1.115c-0.688,0.176-1.121-0.328-1.221-1.048
	c-0.152-1.144-0.324-2.3-0.487-3.431c-0.099,0.003-0.197,0.005-0.293,0.005c-0.017,0.235-0.046,0.496-0.052,0.729
	c-0.096,4.876-0.185,9.758-0.29,14.64c-0.023,1.207-0.561,1.904-1.491,1.928c-0.968,0.023-1.534-0.701-1.536-1.961
	c-0.013-2.783-0.004-5.527-0.154-8.32c-0.018,0.244-0.052,0.472-0.052,0.699c-0.004,2.436,0,4.881-0.004,7.326
	c-0.002,1.487-0.502,2.24-1.509,2.256c-1.022,0.016-1.547-0.736-1.549-2.211c-0.004-3.19,0.025-6.42-0.014-9.61
	c-0.017-1.586-0.159-3.179-0.243-4.795C-281.253-122.088-281.322-122.091-281.393-122.093z"/>
<path fill-rule="evenodd" clip-rule="evenodd" fill="none" stroke="#333333" stroke-miterlimit="10" d="M-248.964-154.408
	c-0.004,3.086-2.578,5.665-5.651,5.657c-3.076-0.009-5.645-2.598-5.639-5.668c0.006-3.06,2.588-5.629,5.652-5.623
	C-251.527-160.036-248.96-157.469-248.964-154.408z"/>
<path fill-rule="evenodd" clip-rule="evenodd" fill="none" stroke="#333333" stroke-miterlimit="10" d="M-263.603-154.458
	c0.022,3.109-2.462,5.658-5.57,5.707c-3.074,0.043-5.64-2.486-5.659-5.608c-0.021-3.111,2.453-5.64,5.558-5.684
	C-266.216-160.086-263.622-157.537-263.603-154.458z"/>
<path fill-rule="evenodd" clip-rule="evenodd" fill="none" stroke="#333333" stroke-miterlimit="10" d="M-244.599-135.833
	c1.865-0.002,3.331,1.446,3.337,3.283c0.005,1.864-1.467,3.336-3.323,3.338c-1.863,0.002-3.335-1.459-3.337-3.324
	C-247.924-134.375-246.467-135.831-244.599-135.833z"/>
<path fill-rule="evenodd" clip-rule="evenodd" fill="none" stroke="#333333" stroke-miterlimit="10" d="M-280.974-132.571
	c-0.008-1.815,1.398-3.246,3.228-3.262c1.874-0.018,3.381,1.47,3.352,3.281c-0.028,1.791-1.549,3.288-3.322,3.282
	C-279.51-129.273-280.965-130.743-280.974-132.571z"/>
<path fill="none" stroke="#333333" stroke-miterlimit="10" d="M-351.187-126.646c0.611-1.422,2.223-4.008,3.979-3.537
	c0.864,0.229,1.017,0.368,1.7-0.264c0.881-0.778,1.435-0.652,2.408,0.048c1.112,0.764,1.348,1.799,1.753,3.003
	c0.402,1.156,0.937,2.247,1.207,3.507c0.177,0.872,1.088,2.72,0.127,3.551c-1.258,1.074-1.644-1.377-1.748-2.081
	c-0.148-0.964-0.039-2.575-0.709-3.317c-0.048,0.17-0.074,0.485-0.117,0.696c-0.142,0.734-0.48,1.369-0.508,2.129
	c-0.026,0.665,0.064,1.322,0.064,2.03c0,1.293,0.293,2.544,0.36,3.826c0.064,1.325-0.292,2.639-0.091,3.876
	c0.182,1.194,0.413,2.549,0.227,3.788c-0.188,1.252-1.404,2.563-2.465,1.23c-0.567-0.697-0.331-2.576-0.42-3.493
	c-0.106-1.16-0.125-2.435-0.073-3.618c0.017-0.35,0.356-3.878-0.673-2.645c-0.299,0.315,0.035,1.167,0.055,1.586
	c0.024,0.569-0.011,1.149,0.014,1.716c0.053,1.262,0.113,2.621,0.055,3.882c-0.04,0.886-0.574,2.876-1.479,3.245
	c-1.273,0.507-1.743-1.469-1.753-2.265c-0.036-2.874,0.769-5.417,0.769-8.269c0-1.4-0.066-2.656-0.127-4.063
	c-0.025-0.521-0.256-1.127-0.15-1.68c0.063-0.365,0.656-1.437-0.133-1.397c-0.29,0.978-0.47,1.994-0.907,2.937
	c-0.566,1.19-0.706,2.005-1.967,1.166c-0.226-0.948-0.356-1.606-0.067-2.62C-351.563-124.667-351.588-125.707-351.187-126.646z"/>
<path fill="none" stroke="#333333" stroke-miterlimit="10" d="M-312.634-131.488c0.824-0.026,1.403,0.211,2.16-0.247
	c0.613-0.373,0.948-0.856,1.282-1.459c0.565-1.034,0.637-2.643-0.136-3.58c-1.491-1.804-6.176-2.215-6.324,0.889
	c-0.051,1.127-0.168,2.21,0.648,3.074c0.578,0.591,1.396,1.604,2.303,1.554"/>
<path fill="none" stroke="#333333" stroke-miterlimit="10" d="M-312.275-130.016c-0.497-0.213-0.694-0.674-1.342-0.621
	c-0.539,0.042-1.154,0.532-1.607,0.853c-0.939,0.626-1.818,1.535-2.342,2.569c-0.576,1.146-0.476,2.424-0.474,3.731
	c0,0.844-0.732,2.706,0.489,2.86c1.134,0.18,1.182-1.287,1.271-2.091c0.102-0.925,0.473-2.293,1.11-2.995
	c-0.217,0.871,0.026,1.841-0.056,2.708c-0.081,0.808-0.219,1.722-0.424,2.539c-0.435,1.712-1.462,3.246-1.678,5.038
	c0.609,0.028,1.221-0.119,1.808-0.05c-0.591,0.868-0.165,2.916,0.023,3.919c0.136,0.688,0.251,1.331,0.348,2.021
	c0.067,0.457,0.076,1.47,0.344,1.811c0.233,0.334,0.916,0.572,1.383,0.416c0.608-0.205,0.711-1.038,0.802-1.563
	c0.223-1.203,0.344-2.469,0.463-3.666c0.103-1.031-0.485-2.026-0.327-2.938c0.164-0.054,0.45-0.054,0.614,0
	c0.06,1.149,0.011,2.312,0.011,3.496c0,0.608,0.118,1.2,0.073,1.799c-0.045,0.574-0.276,1.19-0.073,1.772
	c0.297,0.887,1.528,1.86,2.174,0.829c0.604-0.932,0.304-2.504,0.56-3.582c0.326-1.328,0.574-3.123,0.078-4.405
	c0.551-0.036,1.122,0.006,1.67-0.025c-0.069-0.705-0.724-1.552-0.899-2.264c-0.237-0.914-0.596-1.798-0.833-2.717
	c-0.22-0.863-0.174-1.76-0.22-2.701c-0.038-0.695-0.303-1.838,0.255-2.371c0.564,0.992,0.628,2.05,0.928,3.136
	c0.247,0.875,0.349,2.787,1.619,2.608c2.404-0.375,0.181-4.912-0.208-6.12c-0.435-1.298-0.97-2.755-2.047-3.75
	c-0.474-0.44-1.201-0.765-1.818-0.999c-0.872-0.372-0.955,0.421-1.675,0.836"/>
<path fill="none" stroke="#333333" stroke-miterlimit="10" d="M-310.948-138.331c0-0.798,0.058-1.521-0.195-2.257
	c-0.22-0.642-0.595-1.206-0.912-1.827c-0.902-1.729-1.781-3.333-3.104-4.821c-1.081-1.244-2.675-1.996-4.069-2.765
	c-0.38-0.186-0.908-0.753-1.338-0.732c-0.656,0.027-0.695,0.968-1.166,1.306c-0.715,0.544-1.399-0.221-2.073-0.542
	c-0.749-0.323-1.411-0.162-2.092,0.232c-1.453,0.803-2.364,2.383-3.655,3.411c-0.773-1.885-3.141-2.455-4.913-3.298
	c-0.602-0.3-1.094-0.866-1.661-0.572c-0.625,0.282-0.974,1.226-1.36,1.747c-0.22-0.527-0.903-1.385-1.455-1.617
	c-0.8-0.353-1.539,0.544-2.12,1c-1.256,0.977-2.525,1.919-3.643,3.012c-2.397,2.359-3.307,5.467-3.307,8.772"/>
<path fill="none" stroke="#333333" stroke-miterlimit="10" d="M-344.289-137.577c0.496-1.239,0.131-3.377,1.88-3.925
	c0.564,1.911-0.159,3.789-0.058,5.709c0.058,1.034,0.289,1.966,0.289,3.047c0,0.472,0.03,0.953,0,1.423
	c-0.038,0.511-0.264,0.905-0.289,1.392"/>
<path fill="none" stroke="#333333" stroke-miterlimit="10" d="M-341.484-120.195c0,1.752,0.032,3.45-0.2,5.119
	c-0.205,1.391-0.292,2.714-0.292,4.145c0,1.132-0.165,3.026,1.125,3.351c0.559,0.158,1.451-0.03,1.966-0.21
	c0.862-0.333,0.956-1.113,1.126-1.961c0.255-1.341,0.35-2.677,0.348-4.059c0-0.696,0.123-1.242,0.288-1.898
	c0.224-0.934-0.107-1.095-0.495-1.901c-0.635-1.269-0.096-2.684,0.205-3.942c0.385-1.559-0.034-3.04-0.207-4.55
	c-0.051-0.436-0.307-1.852,0.136-2.084c0.778-0.41,1.12,1.008,1.254,1.421c0.488,1.516,0.313,3.136,0.016,4.673
	c-0.276,1.366-0.712,2.722-0.634,4.155c0.083,1.543,0.098,3.018,0,4.569c-0.1,1.61-0.361,3.211,0.419,4.727
	c0.468,0.909,2.406,1.34,3.096,0.361c0.79-1.118,0.951-3.267,1.177-4.61c0.284-1.765,0.294-3.521,0.294-5.328
	c0-2.385-0.271-4.78-0.754-7.064c-0.346-1.617-0.73-4.131,0.202-5.608c0.524-0.046,1.439,0.166,1.882-0.123
	c0.674-0.387,0.397-1.163,1.396-1.021c0.128,1.629-0.888,3.397-1.33,4.904c-0.349,1.218-0.614,2.44-0.982,3.638
	c-0.205,0.721-0.436,1.209-0.062,1.747c0.274,0.392,0.763,0.662,1.12,0.913c0.904,0.57,2.132,0.68,3.153,1.011
	c0.154,3.492-1.048,7.446,0.571,10.69c0.501,1.009,1.762,1.885,2.93,1.326c1.119-0.537,1.096-2.543,1.19-3.561
	c0.139-1.412,0.085-2.84,0.085-4.279c0-1.241-0.258-2.473-0.194-3.688c0.922-0.039,0.963,0.045,0.972,0.959
	c0.006,0.673,0.067,1.339,0.067,2.044c0,1.603-0.51,3.147-0.422,4.751c0.063,1.167,0.516,3.323,1.61,3.858
	c0.979,0.482,2.607-0.062,3.223-0.984c0.648-0.974,0.143-2.131,0-3.154c-0.143-0.96-0.148-1.88-0.2-2.857
	c-0.097-1.829-0.344-3.578-0.344-5.413"/>
<path fill="none" stroke="#333333" stroke-miterlimit="10" d="M-314.877-137.577c-0.334-1.157-0.427-3.115-1.532-3.862
	c-0.071,1.029,0.336,2.113,0.009,3.085c-0.215,0.611-0.369,0.865-0.369,1.564c0,0.444,0.023,0.879,0,1.309
	c-0.057,1.099-0.048,1.947,0.431,2.951c0.414,0.88,1.194,1.427,1.671,2.189"/>
<path fill="none" stroke="#333333" stroke-miterlimit="10" d="M-339.233-161.9c-0.347,0.611-1.354,0.971-1.831,1.553
	c-0.572,0.73-1.052,1.737-1.352,2.601c-0.593,1.743,0.232,2.716,1.023,4.145c0.641,1.126,1.693,1.949,2.982,2.144
	c1.215,0.22,3.235,0.41,4.159-0.424c1.176-1.044,1.924-2.659,2.225-4.19c0.302-1.459-0.128-2.434-0.95-3.567
	c-1.499-2.1-4.269-2.519-6.746-2.519"/>
<path fill="none" stroke="#333333" stroke-miterlimit="10" d="M-324.143-161.832c-0.525,0.721-1.272,1.156-1.811,1.851
	c-0.557,0.745-0.532,1.371-0.714,2.224c-0.248,1.126-0.499,1.832-0.123,3.031c0.255,0.795,0.596,1.855,1.259,2.458
	c1.183,1.013,3.909,1.484,5.324,0.764c1.453-0.711,2.577-2.969,2.949-4.453c0.16-0.664,0.312-1.835,0.052-2.506
	c-0.394-0.968-1.804-1.811-2.6-2.373c-1.155-0.769-2.991-1.277-4.404-1.193"/>
<path fill="none" stroke="#333333" stroke-miterlimit="10" d="M-343.451-137.643c-2.531-0.521-6.014-0.544-6.101,2.814
	c-0.049,1.827,1.024,2.792,2.657,3.283c1.388,0.423,3.41,0.14,4.084-1.403c0.415-0.944,0.039-1.626-0.219-2.533
	c-0.242-0.875-0.387-1.48-0.913-2.226"/>
<path fill-rule="evenodd" clip-rule="evenodd" fill="none" stroke="#333333" stroke-miterlimit="10" d="M-275.411-129.97
	c-0.248,0.296-0.146,0.852-0.146,1.256"/>
<g>
	<path fill="#FBB03B" stroke="#666666" stroke-width="2" stroke-miterlimit="10" d="M113.995-45.202c0,0-3.268-2.316-2.485-8.64
		c0.375-3.138,4.608-6.344,4.608-6.344c-1.508,7.732,9.707,11.961,11.56-4.325c1.264,3.577,6.574,9.756-2.197,19.122
		c0,0,16.438-4.864,15.209-18.295c-0.932-10.088-13.701-9.646-12.171-33.316c-3.451,1.453-10.083,9.903-7.86,17.737
		c0.806,2.858,3.915,8.163-0.157,9.576c-2.863,1.028-6.536,0.063-5.128-6.659c1.124-5.364-5.635-8.398-5.635-8.398
		c2.326,8.51-10.302,15.424-9.1,26.893C101.365-50.828,107.782-46.647,113.995-45.202z"/>
	<path fill="#A67C52" stroke="#666666" stroke-width="2" stroke-miterlimit="10" d="M106.751-31.087
		c1.54-0.005,3.039-0.676,4.512-1.067c1.527-0.352,3.066-0.583,4.537-1.076c1.724-0.627,3.372-1.451,5.141-1.928
		c1.603-0.486,3.124-0.772,4.613-1.59c1.25-0.651,2.489-1.053,3.837-1.441c2.09-0.566,3.874-1.735,6.08-2.146
		c1.258-0.203,1.851-0.475,2.66,0.548c0.436,0.54,1.411,1.764,1.088,2.594c-0.254,0.64-2.104,1.188-2.702,1.505
		c-1.602,0.771-3.382,1.144-5.133,1.603c-3.567,1.037-6.896,2.721-10.348,3.96c-2.571,0.942-5.166,1.747-7.722,2.669
		c-2.036,0.743-3.931,1.772-5.977,2.432c-0.815,0.244-1.645,0.51-2.527,0.604c-0.442,0.048-1.102,0.179-1.553,0.094
		c-0.811-0.155-0.513,0.012-0.779-0.757c-0.367-1.125-0.917-3.319-0.066-4.22c0.814-0.836,2.948-1.72,4.129-1.675L106.751-31.087z"
		/>
	<path fill="#A67C52" stroke="#666666" stroke-width="2" stroke-miterlimit="10" d="M130.313-30.108
		c1.381-0.065,2.982,1.135,4.304,1.557c1.376,0.394,2.892,0.569,4.226,1.093c0.54,0.239,1.864,0.333,2.116,1.006
		c0.151,0.343-0.164,1.719-0.262,2.153c-0.474,1.866-1.905,1.256-3.271,0.982c-1.068-0.176-2.269-0.377-3.308-0.859
		c-1.136-0.529-2.234-1.32-3.396-1.763c-1.04-0.418-1.98-0.635-3.034-1.012c-0.804-0.254-2.146-0.187-2.676-1.085
		c0.693-0.471,1.92-0.877,2.728-1.072c0.864-0.262,1.805-0.604,2.578-0.914"/>
	<path fill="#A67C52" stroke="#666666" stroke-width="2" stroke-miterlimit="10" d="M116.781-37.142
		c-1.566-1.064-3.837-1.294-5.655-1.752c-1.918-0.477-3.53-1.42-5.408-1.918c-0.915-0.218-1.682-0.67-2.594-0.896
		c-0.379-0.095-0.82-0.197-1.251-0.118c-0.725,0.139-0.429,0.111-0.887,0.642c-0.911,0.97-3.028,2.809-1.373,3.803
		c2.426,1.54,6.152,0.842,8.909,1.229c1.369,0.243,2.601,0.314,3.904-0.112c1.361-0.444,2.779-0.503,4.043-0.877"/>
</g>
<g>
	<path fill="#C7B299" stroke="#666666" stroke-width="2" stroke-miterlimit="10" d="M131.875-146.805
		c-1.825,2.166-2.605,3.033-4.491,6.067c-1.419,2.243-3.393,4.493-5.263,7.5c-1.19,1.967-2.854,4.604-3.22,6.928
		c-0.193,1.179,2.146,3.067,3.324,3.278c1.301,0.283,2.571-1.418,3.324-2.361c1.38-1.798,2.385-3.038,3.842-4.766
		c1.914-2.3,3.757-4.692,5.581-7.036c2.939-3.803,4.795-8.127,7.094-12.398c0.783-1.468,2.351-4.286,2.294-6.114
		c-0.053-1.723-1.967-3.422-3.132-3.179C137.841-158.13,135.001-150.55,131.875-146.805z"/>
	<path fill="#22B573" stroke="#666666" stroke-width="2" stroke-miterlimit="10" d="M149.77-179.483c0,0,3.956,7.291-4.368,9.172
		c-4.666,1.015-3.663,5.341-2.295,7.55c1.044,1.666,7.547,4.811,11.262-0.719C162.302-175.277,149.77-179.483,149.77-179.483z"/>
	<path fill="#C7B299" stroke="#666666" stroke-width="2" stroke-miterlimit="10" d="M111.517-163.511
		c-5.049-2.735-0.344-11.147-2.729-15.543c-2.131-3.881-15.017-11.145-24.32,15.144c-3.908,10.994-2.339,21.494-0.947,25.526
		c0.726,2.101,2.264,4.749,3.726,6.298c3.888,4.146,9.035,6.12,14.734,5.542c5.405-0.552,10.728-5.106,14.339-9.142
		c4.069-4.539,7.638-9.181,9.365-15.066c0.836-2.87,1.273-5.627,1.734-8.557c0.394-2.494,1.051-5.44,0.3-8.005
		c-0.775-2.645-2.55-5.141-5.632-4.312c-2.303,0.636-3.068,3.999-4.404,5.678c-0.807,1.071-1.77,2.241-3.128,2.573
		C113.414-163.139,112.552-162.833,111.517-163.511"/>
	<path fill="#FFFFFF" stroke="#666666" stroke-width="2" stroke-miterlimit="10" d="M105.539-167.176
		c-0.563-4.163-6.699-4.461-8.675-4.479c-1.889-0.02-2.761,0.567-3.826,2.237c-0.849,1.334-1.419,3.009-1.696,4.533
		c-0.521,2.786-0.242,5.347,2.018,7.221c1.793,1.479,5.972,2.164,7.895,0.646C103.868-159.094,106.229-163.404,105.539-167.176"/>
	<path fill="#FFFFFF" stroke="#666666" stroke-width="2" stroke-miterlimit="10" d="M95.098-150.713
		c-0.324-2.406-3.923-2.63-5.064-2.644c-1.105-0.011-1.622,0.354-2.245,1.321c-0.483,0.77-0.824,1.781-0.975,2.645
		c-0.299,1.612-0.149,3.174,1.167,4.229c1.051,0.854,3.491,1.276,4.628,0.398C94.118-145.991,95.497-148.536,95.098-150.713"/>
	<path fill="#FFFFFF" stroke="#666666" stroke-width="2" stroke-miterlimit="10" d="M100.699-137.805
		c-0.302-2.459-3.9-2.63-5.04-2.644c-1.132-0.013-1.623,0.3-2.251,1.322c-0.476,0.769-0.819,1.729-0.993,2.644
		c-0.301,1.612-0.126,3.121,1.193,4.229c1.049,0.855,3.49,1.276,4.602,0.345C99.744-133.085,101.123-135.627,100.699-137.805"/>
	<path fill="#FFFFFF" stroke="#666666" stroke-width="2" stroke-miterlimit="10" d="M113.36-142.088
		c-0.324-2.463-3.925-2.635-5.064-2.647c-1.131-0.011-1.623,0.302-2.251,1.321c-0.477,0.771-0.819,1.733-0.993,2.613
		c-0.301,1.644-0.127,3.153,1.193,4.261c1.048,0.854,3.488,1.226,4.602,0.346C112.381-137.422,113.76-139.912,113.36-142.088"/>
</g>
<text transform="matrix(1 0 0 1 -675.6704 -0.2402)" fill="#333333" font-family="'MyriadPro-Regular'" font-size="12.9689">Adventure</text>
<text transform="matrix(1 0 0 1 -589.2114 -0.2402)" fill="#333333" font-family="'MyriadPro-Regular'" font-size="12.9689">Romantic</text>
<text transform="matrix(1 0 0 1 -504.5879 -0.2402)" fill="#333333" font-family="'MyriadPro-Regular'" font-size="12.9689">Culture</text>
<text transform="matrix(1 0 0 1 -438.2578 -0.2402)" fill="#333333" font-family="'MyriadPro-Regular'" font-size="12.9689">After Dark</text>
<text transform="matrix(1 0 0 1 -354.4297 -0.2402)" fill="#333333" font-family="'MyriadPro-Regular'" font-size="12.9689">Family</text>
<text transform="matrix(1 0 0 1 -735.7168 -0.2402)" fill="#333333" font-family="'MyriadPro-Regular'" font-size="12.9689">Art</text>
<path fill="#FF7BAC" stroke="#666666" stroke-width="2" stroke-miterlimit="10" d="M137.934,45.481
	c1.191-3.129,5.401-14.384-2.389-20.726c-2.464-2.011-7.303-2.032-10.322-1.313c-3.298,0.788-6.107,1.688-8.506,4.234
	c-1.299,1.364-1.729,2.911-2.268,4.642c-0.866-6.836-10.105-10.129-16.304-8.987c-5.896,1.065-9.901,8.807-9.493,13.487
	c0.316,3.633,1.366,6.088,3.185,9.241c1.317,2.309,2.579,4.585,4.391,6.527c2.173,2.292,3.896,4.797,6.314,6.916
	c2.397,2.103,4.419,4.67,6.785,6.821c1.8,1.62,3.529,2.96,5.554,4.322C123.347,64.757,133.734,56.631,137.934,45.481z"/>
<path fill="none" stroke="#666666" stroke-width="2" stroke-miterlimit="10" d="M149.14,12.118
	c-1.13,0.247-10.137,9.555-11.611,11.59"/>
<path fill="#808080" stroke="#666666" stroke-width="2" stroke-miterlimit="10" d="M113.228,46.955
	c-1.64,0.602-15.154,15.106-17.095,17.17c-1.408,1.495-5.113,3.369-3.143,5.642c0.484,0.581,1.253,0.702,1.731,1.236
	c1.989,2.16-0.363,2.625-2.114,2.953c-1.903,0.408-3.641,0.556-5.535,0.89c-1.833,0.27-3.355,1.415-5.072,1.654
	c0.556-2.009,1.591-3.835,2.279-5.734c0.697-1.967,1.169-4.771,2.519-6.306c1.251,1.049,2.617,2.582,5.771,4.612"/>
<path fill="#999999" stroke="#666666" stroke-width="2" stroke-miterlimit="10" d="M143.742,10.159c0-1.922,0.361-4.891-0.453-6.636
	c-1.416-0.277-2.296,1.973-2.91,2.861c-0.881,1.216-1.852,2.447-2.725,3.649c-1.392,1.898-1.884,5.319-1.676,7.729
	c1.085,0.301,3.442-2.98,4.188-3.799C141.13,12.872,143.35,11.463,143.742,10.159L143.742,10.159z"/>
<path fill="#999999" stroke="#666666" stroke-width="2" stroke-miterlimit="10" d="M156.614,22c-2.353,0-5.588-4.039-7.217-2.504
	c-1.003,0.949-1.757,0.512-2.665,1.606c-0.721,0.871-2.174,1.078-2.559,2.132c2.705,0.14,6.202,3.607,8.019,1.576
	c0.798-0.886,5.56-1.811,4.705-2.811H156.614z"/>
<g>
	<g>
		<path fill="#FBB03B" stroke="#333333" stroke-miterlimit="10" d="M-482.36-44.932c1.378-5.924,3.12-10.361,4.391-12.768
			c1.737,2.292,13.378,10.064,20.806,8.387c-0.133,0.912-0.743,4.043-0.912,4.89c-0.419,1.991-1.146,3.837-1.853,5.748
			c-0.616,1.623-3.89,9.107-5.402,10.289c-1.443,1.093-4.312,2.081-6.157,2.225c-2.125,0.205-4.125-0.461-6.047-1.288
			c-1.676-0.762-6.521-1.944-6.832-6.26"/>
		<path fill="#FFFFFF" stroke="#333333" stroke-miterlimit="10" d="M-479.606-35.07c5.454-0.947,8.839,3.379,10.22,5.368
			C-466.871-34.23-474.232-41.784-479.606-35.07z"/>
		<path fill="none" stroke="#333333" stroke-miterlimit="10" d="M-462.705-41.46c-1.992,2.013-5.446,0.692-5.783-2.064"/>
		<path fill="none" stroke="#333333" stroke-miterlimit="10" d="M-478.883-48.247c0.068,2.473,3.686,4.392,5.739,2.995"/>
	</g>
	<path fill="#29ABE2" stroke="#333333" stroke-miterlimit="10" d="M-485.78-60.697c0.366,0.896,1.441,4.219,1.716,5.112
		c0.655,2.103,0.945,4.248,1.271,6.422c0.283,1.883,1.135,10.725,0.31,12.631c-0.792,1.819-2.982,4.271-4.65,5.379
		c-1.933,1.313-4.17,1.766-6.443,1.952c-2.48,0.222-8.687-0.656-10.061-3.505c-0.526-1.083-6.223-20.384-6.327-24.972
		C-507.093-56.418-491.93-55.178-485.78-60.697z"/>
	<path fill="#FFFFFF" stroke="#333333" stroke-miterlimit="10" d="M-488.39-41.914c-2.866,4.687-10.021,3.428-12.043,2.804
		C-499.378-33.617-487.873-32.595-488.39-41.914z"/>
	<path fill="none" stroke="#333333" stroke-miterlimit="10" d="M-493.709-48.719c0.924-2.939,4.918-3.396,6.617-0.878"/>
	<path fill="none" stroke="#333333" stroke-miterlimit="10" d="M-497.444-47.309c-1.886-1.937-6.267-0.837-6.925,1.806"/>
</g>
<g>
	<path fill="#FFFF00" d="M-415.758-57.237c3.068-0.629,6.117-1.034,9.183-0.536c2.333,0.347,2.06-0.183,2.716,2.146
		c0.322,1.163,0.396,2.894,0.557,4.029c0.398,2.929-0.602,6.395-3.267,7.583c-2.954,1.27-5.51,0.338-8.599-0.023
		c-0.079-1.825-1.559-3.16-1.67-5.364c-0.115-2.45,0.371-4.846,1.359-7.048"/>
	<path fill="#C7B299" stroke="#333333" stroke-miterlimit="10" d="M-404.35-57.734c-0.21-0.164-0.475-0.94-0.229-1.336
		c0.354-0.521,0.919-0.374,1.527-0.39c0.363-1.17-1.871-2.01-2.631-2.62c-1.021-0.847-1.836-1.75-2.143-3.025
		c-0.331-1.347,0.122-3.195-0.728-4.361c-0.425-0.625-0.845-0.766-1.105-1.418c-0.282-0.693-0.235-1.5-0.483-2.158
		c-0.249,0.604-0.112,1.402-0.341,2.051c-0.255,0.774-0.729,1.098-1.144,1.754c-0.755,1.225-0.371,2.584-0.849,3.864
		c-0.483,1.299-1.452,2.016-2.489,2.832c-1.139,0.888-3.305,1.675-3.251,3.343c0.507-0.027,1.272-0.107,1.679,0.261
		c0.601,0.539,0.108,1.296,0.689,1.714c0.785,0.539,2.893-0.301,3.8-0.373c2.589-0.243,5.173,0.084,7.696,0.086"/>
	<path fill="#C7B299" stroke="#333333" stroke-miterlimit="10" d="M-405.198-43.466c-1.692,0-3.402,0.606-5.221,0.437
		c-1.706-0.196-3.315-0.869-5.14-0.705c0.873,1.425,1.945,1.994,1.056,2.688c-0.194,0.133-0.614-0.152-0.815,0.002
		c-0.587,0.44,1.088,1.503,1.523,2.104c0.537,0.751,1.057,1.576,1.442,2.426c2.206,4.722-3.36,14.072-5.905,15.927
		c0.897,1.08,5.105,1.161,6.541,1.306c2.475,0.285,4.738,0.506,7.11-0.137c0.899-0.228,2.815-0.707,2.815-0.707
		s-1.976-2.258-2.443-2.875c-1.276-1.729-2.729-3.963-3.492-6.073c-0.754-1.99-0.626-6.56,0.002-8.785
		c0.165-0.606,0.484-1.404,1.077-1.785c0.552-0.386,1.477-0.029,1.457-0.968c-0.014-0.664-1.116-0.251-0.774-1.313
		C-405.701-42.711-405.198-43.466-405.198-43.466z"/>
	<path fill="none" stroke="#333333" stroke-miterlimit="10" d="M-404.604-58.18c1.118,2.367,1.821,4.148,1.821,6.946
		c0,2.517-0.666,5.876-2.415,7.768"/>
	<path fill="none" stroke="#333333" stroke-miterlimit="10" d="M-408.029-57.697c2.394,3.663,2.405,10.897-0.707,14.485"/>
	<path fill="none" stroke="#333333" stroke-miterlimit="10" d="M-412.455-57.697c-1.225,3.663-1.23,10.897,0.378,14.485"/>
	<path fill="none" stroke="#333333" stroke-miterlimit="10" d="M-415.935-57.14c-1.262,2.419-1.575,4.459-1.69,6.872
		c-0.111,2.394,0.276,4.793,2.174,6.391"/>
	<path fill="none" stroke="#333333" stroke-miterlimit="10" d="M-400.62-56.508c0.521-0.205,0.761-0.896,1.216-1.209
		c0.601-0.461,1.355-0.694,1.93-1.206"/>
	<path fill="none" stroke="#333333" stroke-miterlimit="10" d="M-400.295-51.048c1.18,0,2.395-0.078,3.534,0.187"/>
	<path fill="none" stroke="#333333" stroke-miterlimit="10" d="M-401.26-45.959c1.072,0.563,1.989,1.702,2.971,2.489"/>
	<path fill="none" stroke="#333333" stroke-miterlimit="10" d="M-421.525-56.583c-0.99-0.52-2.144-1.196-3.139-1.597"/>
	<path fill="none" stroke="#333333" stroke-miterlimit="10" d="M-420.428-51.196c-1.889,0-4.08-0.111-3.749-0.111"/>
	<path fill="none" stroke="#333333" stroke-miterlimit="10" d="M-418.869-45.326c-1.074,0.095-2.113,1.405-2.897,2.08"/>
</g>
<path fill-rule="evenodd" clip-rule="evenodd" fill="none" stroke="#333333" stroke-miterlimit="10" d="M-255.837-45.85
	c-0.091,0.012-1.646-3.767-1.735-3.755c-0.014,0.35-0.035,0.697-0.043,1.01c-0.041,1.622,1.318,8.142,1.24,9.725"/>
<path fill-rule="evenodd" clip-rule="evenodd" fill="none" stroke="#333333" stroke-miterlimit="10" d="M-283.031-45.654
	c-0.534-0.191,0.35,2.06-0.431-3.534c-0.148,0.707-0.423,2.524-0.519,2.971c-1.479-1.19-3.146-0.643-4.253,0.317
	c0.272-1.096,0.591-4.316,1.046-5.598c1.277-3.581,3.984-5.844,7.324-7.433c0.641-0.283,1.138-0.239,1.563,0.369
	c0.169,0.235,0.448,0.442,0.662,0.638c1.766-1.43,2.061-1.463,3.978-0.146c1.121,0.745,2.166,1.61,3.234,2.432
	c1.178-0.858,2.338-1.765,3.558-2.532c1.882-1.234,1.901-1.205,3.513,0.18c0.072-0.009,0.162,0.004,0.203-0.031
	c1.441-1.321,1.445-1.329,3.229-0.353c4.217,2.315,7.426,7.27,8.025,11.917"/>
<path fill-rule="evenodd" clip-rule="evenodd" fill="none" stroke="#333333" stroke-miterlimit="10" d="M-258.214-27.794
	c0.436,0.051,0.335,6.877,0.254,8.303c-0.081,1.379-1.175,2.347-2.475,2.352c-1.306,0.006-2.415-0.928-2.471-2.33
	c-0.096-2.498-0.057-5.001-0.071-7.502c-0.004-0.419-0.002-0.839-0.002-1.259c-0.089-0.009-0.178-0.019-0.271-0.026
	c-0.025,0.288-0.076,0.542-0.078,0.831c-0.004,2.346,0.018,4.702-0.016,7.071c-0.01,0.588-0.09,1.244-0.298,1.79
	c-0.37,0.947-1.424,1.492-2.442,1.412c-1.082-0.087-1.949-0.823-2.195-1.894c-0.107-0.483-0.15-0.989-0.152-1.484
	c-0.014-2.768-0.006-5.52-0.006-8.313c-0.83-0.307-1.643-0.525-2.419-0.872c-0.896-0.395-1.394-0.967-1.136-2.087
	c0.604-2.737,1.097-5.464,1.618-8.213c0.048-0.271-0.011-0.525-0.021-0.807c-0.273,0.061-0.545,0.188-0.828,0.218
	c-1.305,0.144-1.292,1.038-1.283,2.063c0.033,6.036,0.031,12.109-0.007,18.146c-0.004,0.739-0.152,1.512-0.483,2.126
	c-0.501,0.94-1.453,1.261-2.496,1.072c-1.039-0.226-1.723-0.87-1.951-1.907c-0.099-0.45-0.087-0.929-0.087-1.395
	c-0.006-5.206-0.004-10.374-0.004-15.58c0-0.384,0-0.769,0-1.115c-0.109-0.006-0.217-0.012-0.325-0.019
	c-0.02,0.318-0.053,0.674-0.053,1.029c-0.002,5.371,0.006,10.742-0.004,16.113c-0.002,1.742-0.945,2.858-2.467,2.928
	c-1.209,0.057-1.827-0.528-1.825-1.747c0-3.234,0-6.498,0-9.851"/>
<path fill-rule="evenodd" clip-rule="evenodd" fill="none" stroke="#333333" stroke-miterlimit="10" d="M-250.313-33.674
	c0.438,2.877,0.872,5.756,1.322,8.702c-0.438,0.037-0.883,0.076-1.422,0.123c0,1.819,0,3.578,0,5.374
	c0,0.367,0.006,0.698-0.005,1.065c-0.031,1.138-0.623,1.849-1.531,1.833c-0.902-0.016-1.467-0.731-1.475-1.882
	c-0.016-1.699-0.004-3.435-0.004-5.136c0-0.358,0-0.717,0-1.077c-0.07-0.001-0.143-0.001-0.215-0.001c0,1.79,0,3.58,0,5.331
	c0,0.402,0.02,0.804-0.012,1.203c-0.076,0.967-0.734,1.638-1.564,1.552c-0.909-0.094-1.418-0.646-1.43-1.574
	c-0.02-1.835-0.008-3.669-0.01-5.505c0-0.356,0-0.752,0-1.186c-0.47-0.043-0.847-0.079-1.302-0.121
	c0.431-2.767,0.854-5.446,1.276-8.164c-0.116-0.021-0.237-0.042-0.36-0.063c-0.084,0.438-0.182,0.873-0.243,1.309
	c-0.078,0.53,0.01,1.128-0.23,1.57c-0.207,0.396-0.781,0.834-1.152,0.79c-0.372-0.035-0.972-0.634-0.977-1.007
	c-0.043-3.594,1.001-6.777,4.072-8.963c1.027-0.751,1.162-0.676,2.143,0.104c0.676-0.976,1.423-0.582,2.163-0.061
	c3.134,2.219,4.204,5.384,4.267,9.047c0.012,0.699-0.476,1.125-1.177,1.111c-0.716-0.014-1.067-0.502-1.148-1.213
	c-0.128-1.076-0.263-2.151-0.401-3.229C-249.92-33.719-250.115-33.696-250.313-33.674z"/>
<path fill-rule="evenodd" clip-rule="evenodd" fill="none" stroke="#333333" stroke-miterlimit="10" d="M-289.543-33.322
	c-0.074,0.716-0.148,1.468-0.219,2.183c-0.074,0.804-0.348,1.472-1.26,1.414c-0.904-0.059-1.118-0.763-1.064-1.551
	c0.211-3.396,1.24-6.375,4.189-8.397c0.686-0.47,1.354-0.772,1.932,0.25c0.779-1.116,1.551-0.612,2.303-0.074
	c2.983,2.149,4.069,5.25,4.047,8.777c-0.004,0.395-0.578,0.987-0.998,1.095c-0.674,0.21-1.1-0.285-1.197-1.028
	c-0.148-1.111-0.317-2.256-0.478-3.368c-0.097,0.002-0.193,0.004-0.287,0.005c-0.016,0.262-0.044,0.486-0.05,0.749
	c-0.094,4.782-0.182,9.547-0.285,14.34c-0.023,1.223-0.55,1.87-1.462,1.894c-0.948,0.023-1.505-0.651-1.507-1.927
	c-0.012-2.732-0.004-5.427-0.15-8.169c-0.018,0.25-0.051,0.464-0.051,0.714c-0.004,2.401,0,4.802-0.004,7.166
	c-0.002,1.461-0.492,2.2-1.479,2.216c-1.004,0.016-1.518-0.686-1.52-2.134c-0.004-3.171,0.025-6.305-0.014-9.474
	c-0.016-1.558-0.155-3.114-0.238-4.672C-289.405-33.317-289.474-33.32-289.543-33.322z"/>
<path fill-rule="evenodd" clip-rule="evenodd" fill="none" stroke="#333333" stroke-miterlimit="10" d="M-257.75-65.055
	c-0.004,3.011-2.527,5.525-5.541,5.519c-3.016-0.007-5.534-2.528-5.528-5.53c0.006-3.04,2.538-5.563,5.542-5.558
	C-260.264-70.618-257.746-68.096-257.75-65.055z"/>
<path fill-rule="evenodd" clip-rule="evenodd" fill="none" stroke="#333333" stroke-miterlimit="10" d="M-272.102-65.131
	c0.021,3.066-2.414,5.555-5.462,5.596c-3.014,0.041-5.528-2.442-5.548-5.479c-0.02-3.083,2.406-5.567,5.449-5.61
	C-274.663-70.667-272.121-68.164-272.102-65.131z"/>
<path fill-rule="evenodd" clip-rule="evenodd" fill="none" stroke="#333333" stroke-miterlimit="10" d="M-253.471-46.85
	c1.829-0.002,3.267,1.426,3.272,3.257c0.004,1.795-1.438,3.24-3.259,3.242c-1.827,0.002-3.27-1.433-3.271-3.227
	C-256.73-45.415-255.303-46.848-253.471-46.85z"/>
<path fill-rule="evenodd" clip-rule="evenodd" fill="none" stroke="#333333" stroke-miterlimit="10" d="M-289.133-43.636
	c-0.008-1.789,1.371-3.2,3.164-3.216c1.838-0.015,3.315,1.446,3.287,3.257c-0.028,1.723-1.52,3.193-3.258,3.188
	C-287.697-40.411-289.124-41.854-289.133-43.636z"/>
<path fill="none" stroke="#333333" stroke-miterlimit="10" d="M-357.969-37.832c0.6-1.358,2.179-3.935,3.902-3.473
	c0.846,0.248,0.996,0.361,1.666-0.239c0.863-0.784,1.406-0.657,2.361,0.032c1.09,0.746,1.321,1.764,1.718,2.946
	c0.396,1.133,0.919,2.204,1.184,3.44c0.174,0.888,1.066,2.671,0.125,3.486c-1.233,1.056-1.61-1.352-1.714-2.041
	c-0.146-0.947-0.038-2.504-0.695-3.26c-0.047,0.205-0.072,0.477-0.115,0.722c-0.139,0.684-0.47,1.308-0.497,2.056
	c-0.025,0.65,0.063,1.333,0.063,1.992c0,1.305,0.286,2.497,0.353,3.789c0.063,1.268-0.286,2.559-0.09,3.807
	c0.179,1.142,0.406,2.506,0.224,3.686c-0.186,1.268-1.378,2.518-2.417,1.246c-0.557-0.722-0.324-2.567-0.411-3.43
	c-0.105-1.177-0.123-2.395-0.072-3.591c0.017-0.307,0.35-3.794-0.66-2.597c-0.293,0.347,0.035,1.146,0.054,1.557
	c0.024,0.561-0.01,1.133,0.014,1.723c0.052,1.201,0.111,2.542,0.054,3.774c-0.039,0.87-0.563,2.824-1.45,3.187
	c-1.248,0.498-1.708-1.442-1.718-2.224c-0.035-2.785,0.753-5.29,0.753-8.095c0-1.399-0.064-2.633-0.124-3.977
	c-0.024-0.512-0.251-1.144-0.147-1.687c0.063-0.354,0.644-1.41-0.131-1.372c-0.284,0.959-0.46,1.958-0.889,2.884
	c-0.556,1.203-0.692,1.969-1.929,1.181c-0.222-0.94-0.35-1.615-0.066-2.608C-358.337-35.888-358.361-36.909-357.969-37.832z"/>
<path fill="none" stroke="#333333" stroke-miterlimit="10" d="M-320.172-42.551c0.809-0.023,1.376,0.172,2.118-0.277
	c0.602-0.366,0.929-0.84,1.258-1.433c0.554-1.016,0.624-2.593-0.134-3.516c-1.463-1.771-6.055-2.137-6.2,0.886
	c-0.05,1.094-0.165,2.156,0.636,3.006c0.566,0.579,1.369,1.574,2.257,1.525"/>
<path fill="none" stroke="#333333" stroke-miterlimit="10" d="M-319.82-41.104c-0.487-0.245-0.681-0.698-1.315-0.646
	c-0.528,0.045-1.131,0.525-1.576,0.838c-0.921,0.614-1.783,1.508-2.296,2.522c-0.564,1.162-0.466,2.381-0.464,3.683
	c0,0.811-0.718,2.639,0.479,2.827c1.111,0.143,1.158-1.3,1.246-2.09c0.101-0.907,0.463-2.222,1.088-2.941
	c-0.211,0.855,0.026,1.808-0.054,2.686c-0.079,0.768-0.214,1.664-0.415,2.475c-0.426,1.674-1.435,3.18-1.645,4.939
	c0.598,0.027,1.196-0.094,1.771-0.045c-0.579,0.886-0.162,2.883,0.023,3.866c0.133,0.653,0.246,1.285,0.34,1.973
	c0.066,0.465,0.075,1.451,0.338,1.767c0.229,0.328,0.898,0.599,1.355,0.408c0.596-0.198,0.697-1.019,0.786-1.533
	c0.218-1.155,0.337-2.425,0.453-3.582c0.101-1.001-0.476-1.978-0.319-2.898c0.16-0.037,0.44-0.037,0.602,0
	c0.059,1.124,0.011,2.302,0.011,3.43c0,0.597,0.116,1.178,0.072,1.802c-0.044,0.563-0.272,1.134-0.072,1.704
	c0.29,0.875,1.497,1.835,2.131,0.838c0.592-0.937,0.298-2.452,0.548-3.504c0.32-1.338,0.564-3.104,0.077-4.331
	c0.54-0.03,1.101,0.004,1.638-0.021c-0.068-0.729-0.71-1.524-0.883-2.259c-0.232-0.897-0.584-1.766-0.816-2.631
	c-0.215-0.882-0.17-1.765-0.215-2.689c-0.037-0.666-0.298-1.771,0.25-2.328c0.553,0.975,0.615,2.05,0.909,3.104
	c0.243,0.848,0.342,2.712,1.587,2.536c2.357-0.366,0.178-4.822-0.203-5.975c-0.427-1.31-0.951-2.739-2.007-3.716
	c-0.464-0.434-1.178-0.714-1.782-0.981c-0.856-0.365-0.938,0.413-1.643,0.837"/>
<path fill="none" stroke="#333333" stroke-miterlimit="10" d="M-318.52-49.302c0-0.787,0.057-1.488-0.19-2.22
	c-0.216-0.631-0.583-1.183-0.896-1.764c-0.884-1.728-1.746-3.303-3.043-4.764c-1.059-1.199-2.622-1.96-3.988-2.711
	c-0.373-0.186-0.891-0.741-1.313-0.724c-0.643,0.027-0.682,0.952-1.143,1.318c-0.701,0.529-1.372-0.252-2.032-0.538
	c-0.735-0.339-1.384-0.189-2.052,0.198c-1.424,0.825-2.318,2.358-3.584,3.359c-0.758-1.862-3.078-2.415-4.816-3.248
	c-0.59-0.259-1.071-0.849-1.628-0.562c-0.612,0.313-0.955,1.236-1.333,1.753c-0.217-0.524-0.887-1.378-1.428-1.626
	c-0.783-0.309-1.508,0.534-2.078,0.983c-1.23,0.957-2.476,1.884-3.57,2.955c-2.353,2.317-3.242,5.368-3.242,8.615"/>
<path fill="none" stroke="#333333" stroke-miterlimit="10" d="M-351.207-48.564c0.487-1.216,0.129-3.281,1.844-3.817
	c0.554,1.841-0.156,3.685-0.057,5.568c0.057,1.017,0.283,1.932,0.283,2.993c0,0.462,0.029,0.936,0,1.396
	c-0.037,0.501-0.258,0.9-0.283,1.383"/>
<path fill="none" stroke="#333333" stroke-miterlimit="10" d="M-348.457-31.497c0,1.723,0.031,3.388-0.195,5.063
	c-0.201,1.331-0.287,2.63-0.287,4.034c0,1.111-0.162,2.972,1.103,3.313c0.548,0.131,1.423-0.02,1.928-0.229
	c0.846-0.291,0.938-1.093,1.104-1.926c0.251-1.283,0.343-2.628,0.341-3.985c0-0.673,0.121-1.191,0.282-1.864
	c0.221-0.879-0.104-1.075-0.484-1.83c-0.622-1.282-0.095-2.671,0.2-3.872c0.378-1.53-0.033-2.985-0.202-4.472
	c-0.05-0.424-0.301-1.83,0.134-2.078c0.762-0.396,1.097,0.99,1.229,1.395c0.479,1.488,0.307,3.08,0.016,4.627
	c-0.271,1.304-0.698,2.635-0.621,4.045c0.081,1.512,0.096,2.96,0,4.484c-0.099,1.581-0.355,3.189,0.41,4.678
	c0.459,0.856,2.359,1.278,3.035,0.318c0.773-1.099,0.933-3.189,1.153-4.527c0.278-1.695,0.288-3.458,0.288-5.231
	c0-2.306-0.266-4.669-0.738-6.937c-0.339-1.584-0.717-4.05,0.197-5.501c0.515-0.031,1.412,0.156,1.846-0.09
	c0.661-0.41,0.389-1.179,1.369-1.004c0.124,1.569-0.871,3.299-1.305,4.78c-0.342,1.2-0.603,2.396-0.963,3.594
	c-0.201,0.686-0.427,1.164-0.061,1.692c0.27,0.385,0.748,0.687,1.099,0.896c0.886,0.561,2.089,0.671,3.092,0.992
	c0.15,3.429-1.028,7.313,0.56,10.535c0.491,0.989,1.727,1.813,2.872,1.266c1.097-0.528,1.074-2.498,1.167-3.497
	c0.137-1.387,0.084-2.789,0.084-4.166c0-1.255-0.254-2.427-0.191-3.656c0.904-0.039,0.945,0.044,0.953,0.94
	c0.006,0.661,0.066,1.342,0.066,2.007c0,1.574-0.501,3.102-0.415,4.695c0.062,1.116,0.507,3.234,1.58,3.76
	c0.96,0.473,2.556-0.062,3.158-0.967c0.636-0.92,0.141-2.093,0-3.098c-0.138-0.942-0.144-1.846-0.194-2.806
	c-0.096-1.768-0.339-3.514-0.339-5.278"/>
<path fill="none" stroke="#333333" stroke-miterlimit="10" d="M-322.371-48.564c-0.327-1.137-0.418-3.059-1.502-3.759
	c-0.07,1,0.33,2.044,0.008,3.002c-0.211,0.595-0.36,0.88-0.36,1.529c0,0.438,0.022,0.884,0,1.32c-0.056,1.051-0.048,1.913,0.421,2.9
	c0.406,0.826,1.171,1.363,1.639,2.112"/>
<path fill="none" stroke="#333333" stroke-miterlimit="10" d="M-346.25-72.418c-0.34,0.592-1.327,0.938-1.794,1.53
	c-0.562,0.683-1.033,1.67-1.325,2.525c-0.581,1.704,0.228,2.659,1.002,4.062c0.628,1.11,1.66,1.914,2.924,2.133
	c1.191,0.188,3.172,0.375,4.078-0.41c1.152-1.021,1.887-2.645,2.182-4.148c0.295-1.432-0.126-2.39-0.932-3.502
	c-1.471-2.05-4.186-2.475-6.613-2.475"/>
<path fill="none" stroke="#333333" stroke-miterlimit="10" d="M-331.455-72.348c-0.516,0.674-1.247,1.102-1.775,1.783
	c-0.545,0.738-0.521,1.347-0.699,2.195c-0.243,1.094-0.489,1.824-0.121,2.967c0.25,0.816,0.584,1.854,1.234,2.415
	c1.16,0.993,3.833,1.462,5.22,0.747c1.426-0.698,2.526-2.914,2.892-4.357c0.156-0.668,0.306-1.797,0.05-2.475
	c-0.385-0.941-1.768-1.761-2.548-2.297c-1.132-0.788-2.934-1.289-4.318-1.206"/>
<path fill="none" stroke="#333333" stroke-miterlimit="10" d="M-350.385-48.629c-2.481-0.512-5.896-0.534-5.981,2.764
	c-0.048,1.831,1.006,2.778,2.605,3.262c1.36,0.378,3.344,0.107,4.004-1.391c0.407-0.94,0.038-1.619-0.214-2.478
	c-0.238-0.89-0.379-1.455-0.896-2.221"/>
<path fill-rule="evenodd" clip-rule="evenodd" fill="none" stroke="#333333" stroke-miterlimit="10" d="M-283.68-41.068
	c-0.242,0.266-0.143,0.81-0.143,1.207"/>
<g>
	<path fill="none" stroke="#666666" stroke-width="2" stroke-miterlimit="10" d="M-213.148-293.532
		c0.521,1.315,2.047,6.029,2.438,7.295c0.932,2.982,1.344,5.983,1.806,9.107c0.402,2.671,1.613,15.21,0.44,17.912
		c-1.124,2.548-4.236,6.029-6.604,7.63c-2.746,1.818-5.926,2.451-9.154,2.768c-3.522,0.29-12.337-0.979-14.29-4.975
		c-0.746-1.584-8.84-28.905-8.986-35.45C-243.42-287.418-221.882-285.666-213.148-293.532z"/>
	<path fill="none" stroke="#666666" stroke-width="2" stroke-miterlimit="10" d="M-216.854-266.848
		c-4.071,6.595-14.234,4.86-17.106,3.938C-232.462-255.082-216.12-253.632-216.854-266.848z"/>
	<path fill="none" stroke="#666666" stroke-width="2" stroke-miterlimit="10" d="M-224.411-276.499
		c1.313-4.17,6.986-4.814,9.399-1.246"/>
	<path fill="none" stroke="#666666" stroke-width="2" stroke-miterlimit="10" d="M-229.715-274.499
		c-2.679-2.747-8.902-1.187-9.838,2.51"/>
	<g>
		<path fill="none" stroke="#666666" stroke-width="2" stroke-miterlimit="10" d="M-208.289-271.141
			c1.957-8.435,4.431-14.733,6.235-18.14c2.468,3.296,19.003,14.319,29.554,11.932c-0.189,1.259-1.056,5.742-1.296,6.937
			c-0.595,2.83-1.628,5.404-2.632,8.104c-0.876,2.355-5.525,12.97-7.673,14.598c-2.051,1.597-6.125,3.002-8.747,3.203
			c-3.018,0.24-5.858-0.654-8.588-1.88c-2.38-1.026-9.265-2.757-9.705-8.84"/>
		<path fill="none" stroke="#666666" stroke-width="2" stroke-miterlimit="10" d="M-204.378-257.142
			c7.747-1.346,12.555,4.791,14.516,7.612C-186.288-255.988-196.745-266.664-204.378-257.142z"/>
		<path fill="none" stroke="#666666" stroke-width="2" stroke-miterlimit="10" d="M-180.371-266.204
			c-2.829,2.854-7.735,0.98-8.216-2.973"/>
		<path fill="none" stroke="#666666" stroke-width="2" stroke-miterlimit="10" d="M-203.352-275.83
			c0.099,3.508,5.234,6.228,8.153,4.248"/>
	</g>
</g>
</svg>
